<svg xmlns="http://www.w3.org/2000/svg" viewBox="0 0 24 24"><g data-name="Cloud Server"><path d="M17.75,15A4,4,0,0,0,18,7c0-1.73,0-3.39-1.7-5.11A5.78,5.78,0,0,0,6.5,5.08,5,5,0,0,0,7.4,15H11v1H6a3,3,0,0,0-3,3v2a3,3,0,0,0,3,3H18a3,3,0,0,0,3-3V19a3,3,0,0,0-3-3H13V15ZM19,19v2a1,1,0,0,1-1,1H6a1,1,0,0,1-1-1V19a1,1,0,0,1,1-1H18A1,1,0,0,1,19,19ZM4.41,10.13A3,3,0,0,1,7.42,7a1,1,0,0,0,1-1C8.53.82,16,1.1,16,6V8a1,1,0,0,0,1,1h.75a2,2,0,0,1,1.42,3.41c-.82.81-.5.59-11.77.59A3,3,0,0,1,4.41,10.13Z"/><path d="M17 21a1 1 0 0 0 0-2A1 1 0 0 0 17 21zM10 21h4a1 1 0 0 0 0-2H10A1 1 0 0 0 10 21z"/></g></svg>