<svg xmlns="http://www.w3.org/2000/svg" enable-background="new 0 0 24 24" viewBox="0 0 24 24"><linearGradient id="a" x1="37.978" x2="37.987" y1="-446.291" y2="-446.291" gradientTransform="matrix(1538 0 0 576.75 -58406 257413.766)" gradientUnits="userSpaceOnUse"><stop offset="0" stop-color="#4f4f4f"/><stop offset="1"/></linearGradient><path fill="url(#a)" d="M4.615,14.596v1.731c0,0.292,6.198,0.78,10.237,1.731c1.951-0.459,3.398-1.026,3.398-1.731v-1.731c0-0.704-1.447-1.272-3.398-1.731C10.814,13.816,4.615,14.305,4.615,14.596L4.615,14.596z"/><linearGradient id="b" x1="37.978" x2="37.987" y1="-444.97" y2="-444.97" gradientTransform="matrix(1538 0 0 576.75 -58406 256644.766)" gradientUnits="userSpaceOnUse"><stop offset="0" stop-color="#4f4f4f"/><stop offset="1"/></linearGradient><path fill="url(#b)" d="M4.615,7.673v1.731c0,0.292,6.198,0.78,10.237,1.731c1.951-0.459,3.398-1.026,3.398-1.731V7.673c0-0.704-1.447-1.272-3.398-1.731C10.814,6.893,4.615,7.382,4.615,7.673L4.615,7.673z"/><linearGradient id="c" x1="37.978" x2="37.987" y1="-445.178" y2="-445.178" gradientTransform="matrix(1538 0 0 961.25 -58406 427939.531)" gradientUnits="userSpaceOnUse"><stop offset="0" stop-color="#c40000"/><stop offset="1" stop-color="red"/></linearGradient><path fill="url(#c)" d="M4.615,11.135v5.192c0-0.433,13.635-1.298,13.635-3.462V7.673C18.25,9.837,4.615,10.702,4.615,11.135L4.615,11.135z"/><linearGradient id="d" x1="37.978" x2="37.987" y1="-444.385" y2="-444.385" gradientTransform="matrix(1538 0 0 961.25 -58406 427170.531)" gradientUnits="userSpaceOnUse"><stop offset="0" stop-color="#c40000"/><stop offset="1" stop-color="red"/></linearGradient><path fill="url(#d)" d="M4.615,4.212v5.192c0-0.433,13.635-1.298,13.635-3.462V0.75C18.25,2.913,4.615,3.779,4.615,4.212L4.615,4.212z"/><linearGradient id="e" x1="37.978" x2="37.987" y1="-445.971" y2="-445.971" gradientTransform="matrix(1538 0 0 961.25 -58406 428708.531)" gradientUnits="userSpaceOnUse"><stop offset="0" stop-color="#c40000"/><stop offset="1" stop-color="red"/></linearGradient><path fill="url(#e)" d="M4.615,18.058v5.192c0-0.433,13.635-1.298,13.635-3.462v-5.192C18.25,16.76,4.615,17.625,4.615,18.058L4.615,18.058z"/><path d="M4.75 24C4.336 24 4 23.664 4 23.25v-5.203c0-.414.336-.75.75-.75 4.617 0 12.178-1.531 12.878-2.4.2-.246.552-.368.853-.262C18.781 14.74 19 14.998 19 15.316v5.121c0 .147-.043.291-.125.414C17.622 22.745 8.223 24 4.75 24zM5.5 18.781v3.706c4.463-.144 10.873-1.482 12-2.344v-3.48C14.695 17.872 8.67 18.664 5.5 18.781zM4.75 9.434C4.336 9.434 4 9.098 4 8.684V3.48c0-.414.336-.75.75-.75 4.617 0 12.178-1.531 12.878-2.4.2-.246.552-.367.853-.262C18.781.174 19 .432 19 .75v5.121c0 .147-.043.291-.125.414C17.621 8.179 8.223 9.434 4.75 9.434zM5.5 4.215v3.706c4.462-.144 10.873-1.482 12-2.344v-3.48C14.695 3.306 8.67 4.098 5.5 4.215z"/><path d="M4.75,16.592c-0.414,0-0.75-0.336-0.75-0.75v-4.953c0-0.414,0.336-0.75,0.75-0.75c4.617,0,12.178-1.53,12.879-2.399c0.199-0.248,0.552-0.368,0.852-0.262C18.781,7.583,19,7.841,19,8.159v4.87c0,0.147-0.043,0.291-0.125,0.414C17.622,15.337,8.223,16.592,4.75,16.592z M5.5,11.623v3.456c4.463-0.144,10.873-1.482,12-2.344V9.506C14.695,10.714,8.67,11.506,5.5,11.623z"/></svg>