<svg xmlns="http://www.w3.org/2000/svg" viewBox="0 0 24 24"><g data-name="Cloud Security"><path d="M19,9c0-2-.09-4-2.05-5.94a7,7,0,0,0-11.86,4A6,6,0,0,0,0,13c0,4.75,5.54,7.26,6,5.1a1,1,0,0,0-.78-1.18C.54,16,1.16,9,6,9A1,1,0,0,0,7,8,5,5,0,1,1,17,8v2a1,1,0,0,0,1,1h1a3,3,0,1,1,0,6,1,1,0,0,0-1,1c0,2.26,6,.63,6-4A5,5,0,0,0,19,9Z"/><path d="M16,15V14a4,4,0,0,0-8,0v1a1,1,0,0,0-1,1v6a1,1,0,0,0,1,1h8a1,1,0,0,0,1-1V16A1,1,0,0,0,16,15Zm-6-1a2,2,0,0,1,4,0v1H10Zm5,7H9V17h6Z"/><path d="M12,20a1,1,0,0,0,0-2A1,1,0,0,0,12,20Z"/></g></svg>