<svg width="0" height="0" class="hidden">
  <symbol xmlns="http://www.w3.org/2000/svg" viewBox="0 0 512 512" id="circle-dot-solid">
    <path d="M0 256C0 114.6 114.6 0 256 0C397.4 0 512 114.6 512 256C512 397.4 397.4 512 256 512C114.6 512 0 397.4 0 256zM256 352C309 352 352 309 352 256C352 202.1 309 160 256 160C202.1 160 160 202.1 160 256C160 309 202.1 352 256 352z"></path>
  </symbol>
  <symbol xmlns="http://www.w3.org/2000/svg" viewBox="0 0 512 512" id="circle-solid">
    <path d="M512 256C512 397.4 397.4 512 256 512C114.6 512 0 397.4 0 256C0 114.6 114.6 0 256 0C397.4 0 512 114.6 512 256z"></path>
  </symbol>
  <symbol xmlns="http://www.w3.org/2000/svg" aria-label="Clojure" viewBox="0 0 512 512" id="clojure">
    <rect width="512" height="512" fill="#fff" rx="15%"></rect>
    <path fill="#466acd" d="M48 107a256 256 0 0 1 464 149c0 135-142 116-142 116a163 163 0 0 0-179-265c-79-45-143 0-143 0"></path>
    <path fill="#53a526" d="M465 404a256 256 0 0 1-464-149c0-135 142-116 142-116a163 163 0 0 0 179 265c79 45 143 0 143 0"></path>
    <path fill="#71aefd" d="M213 128a135 135 0 0 1 123 237c-37 3-68-108-73-125s-19-79-50-112"></path>
    <path fill="#81d837" d="M176 365a135 135 0 0 1 2-220c36 19 59 90 59 90 0 0-54 102-61 130m33 18c0 0 38 18 89 2-30-25-48-111-53-123-7 14-43 87-36 121"></path>
  </symbol>
  <symbol xmlns="http://www.w3.org/2000/svg" viewBox="0 0 24 24" id="cloud-server">
    <g>
      <path d="M17.75,15A4,4,0,0,0,18,7c0-1.73,0-3.39-1.7-5.11A5.78,5.78,0,0,0,6.5,5.08,5,5,0,0,0,7.4,15H11v1H6a3,3,0,0,0-3,3v2a3,3,0,0,0,3,3H18a3,3,0,0,0,3-3V19a3,3,0,0,0-3-3H13V15ZM19,19v2a1,1,0,0,1-1,1H6a1,1,0,0,1-1-1V19a1,1,0,0,1,1-1H18A1,1,0,0,1,19,19ZM4.41,10.13A3,3,0,0,1,7.42,7a1,1,0,0,0,1-1C8.53.82,16,1.1,16,6V8a1,1,0,0,0,1,1h.75a2,2,0,0,1,1.42,3.41c-.82.81-.5.59-11.77.59A3,3,0,0,1,4.41,10.13Z"></path>
      <path d="M17 21a1 1 0 0 0 0-2A1 1 0 0 0 17 21zM10 21h4a1 1 0 0 0 0-2H10A1 1 0 0 0 10 21z"></path>
    </g>
  </symbol>
  <symbol version="1.1" xmlns="http://www.w3.org/2000/svg" xmlns:xlink="http://www.w3.org/1999/xlink" preserveAspectRatio="xMidYMid" viewBox="0 0 256 288" id="csharp">
    <g>
      <path d="M255.569,84.452376 C255.567,79.622376 254.534,75.354376 252.445,71.691376 C250.393,68.089376 247.32,65.070376 243.198,62.683376 C209.173,43.064376 175.115,23.505376 141.101,3.86637605 C131.931,-1.42762395 123.04,-1.23462395 113.938,4.13537605 C100.395,12.122376 32.59,50.969376 12.385,62.672376 C4.064,67.489376 0.015,74.861376 0.013,84.443376 C0,123.898376 0.013,163.352376 0,202.808376 C0,207.532376 0.991,211.717376 2.988,215.325376 C5.041,219.036376 8.157,222.138376 12.374,224.579376 C32.58,236.282376 100.394,275.126376 113.934,283.115376 C123.04,288.488376 131.931,288.680376 141.104,283.384376 C175.119,263.744376 209.179,244.186376 243.209,224.567376 C247.426,222.127376 250.542,219.023376 252.595,215.315376 C254.589,211.707376 255.582,207.522376 255.582,202.797376 C255.582,202.797376 255.582,123.908376 255.569,84.452376" fill="#A179DC" fill-rule="nonzero"></path>
      <path d="M128.182,143.241376 L2.988,215.325376 C5.041,219.036376 8.157,222.138376 12.374,224.579376 C32.58,236.282376 100.394,275.126376 113.934,283.115376 C123.04,288.488376 131.931,288.680376 141.104,283.384376 C175.119,263.744376 209.179,244.186376 243.209,224.567376 C247.426,222.127376 250.542,219.023376 252.595,215.315376 L128.182,143.241376" fill="#280068" fill-rule="nonzero"></path>
      <path d="M255.569,84.452376 C255.567,79.622376 254.534,75.354376 252.445,71.691376 L128.182,143.241376 L252.595,215.315376 C254.589,211.707376 255.58,207.522376 255.582,202.797376 C255.582,202.797376 255.582,123.908376 255.569,84.452376" fill="#390091" fill-rule="nonzero"></path>
      <path d="M201.892326,116.294008 L201.892326,129.767692 L215.36601,129.767692 L215.36601,116.294008 L222.102852,116.294008 L222.102852,129.767692 L235.576537,129.767692 L235.576537,136.504534 L222.102852,136.504534 L222.102852,149.978218 L235.576537,149.978218 L235.576537,156.71506 L222.102852,156.71506 L222.102852,170.188744 L215.36601,170.188744 L215.36601,156.71506 L201.892326,156.71506 L201.892326,170.188744 L195.155484,170.188744 L195.155484,156.71506 L181.6818,156.71506 L181.6818,149.978218 L195.155484,149.978218 L195.155484,136.504534 L181.6818,136.504534 L181.6818,129.767692 L195.155484,129.767692 L195.155484,116.294008 L201.892326,116.294008 Z M215.36601,136.504534 L201.892326,136.504534 L201.892326,149.978218 L215.36601,149.978218 L215.36601,136.504534 Z" fill="#FFFFFF"></path>
      <path d="M128.456752,48.625876 C163.600523,48.625876 194.283885,67.7121741 210.718562,96.0819435 L210.558192,95.808876 L169.209615,119.617159 C161.062959,105.823554 146.128136,96.5150717 128.996383,96.3233722 L128.456752,96.3203544 C102.331178,96.3203544 81.1506705,117.499743 81.1506705,143.625316 C81.1506705,152.168931 83.4284453,160.17752 87.3896469,167.094792 C95.543745,181.330045 110.872554,190.931398 128.456752,190.931398 C146.149522,190.931398 161.565636,181.208041 169.67832,166.820563 L169.481192,167.165876 L210.767678,191.083913 C194.51328,219.21347 164.25027,238.240861 129.514977,238.620102 L128.456752,238.625876 C93.2021701,238.625876 62.4315028,219.422052 46.0382398,190.902296 C38.0352471,176.979327 33.4561922,160.837907 33.4561922,143.625316 C33.4561922,91.1592636 75.9884604,48.625876 128.456752,48.625876 Z" fill="#FFFFFF" fill-rule="nonzero"></path>
    </g>
  </symbol>
  <symbol xmlns="http://www.w3.org/2000/svg" shape-rendering="geometricPrecision" text-rendering="geometricPrecision" image-rendering="optimizeQuality" fill-rule="evenodd" clip-rule="evenodd" viewBox="0 0 512 448.72" id="download">
    <path fill-rule="nonzero" d="M359.34 124.65c-13.57 6.71-25.7 15.37-37.42 24.9l-20.12-23.02c14.8-13.74 32.08-24.5 50.64-32.4-37.56-66.53-128.4-83.94-188.3-37.41-21.74 16.84-38.26 42.03-44.61 75.42l-2.01 10.43-10.39 1.83c-10.18 1.79-19.29 4.25-27.27 7.37-49.8 19.27-63.78 74.69-33.31 116.79 13.04 17.9 29.66 26.98 51.47 30.01h31.88c-1.13 6.81-1.72 13.81-1.72 20.93 0 3.26.12 6.48.36 9.67H97.53l-1.92-.16c-30.54-3.89-55.62-17.43-73.75-42.54C-20.41 228.26.4 149.82 68.92 123.24c7.15-2.79 14.81-5.11 22.86-6.98 9.15-36.34 28.65-64.33 53.73-83.74C222.7-27.29 338.57-1.8 382.79 86.07c6.66-1.04 13.3-1.58 19.92-1.5 98.9.73 138.01 127.21 86.69 195.34-20.58 27.28-52.13 41.31-84.61 48.85l-3.42.41h-18.36c.24-3.19.37-6.41.37-9.67 0-7.12-.6-14.12-1.73-20.93h18.02c24.16-5.81 49.92-16.49 65.23-36.96 36.47-48.56 10.59-146.06-62.4-146.52-14.26-.12-29.11 3.33-43.16 9.56zM233.31 251.22h44.92c10.5 0 19.11 8.6 19.11 19.11v66.01h32.78c6.9.29 11.8 2.59 14.63 6.89 7.68 11.52-2.79 22.89-10.08 30.9-20.63 22.65-55.48 56.2-65.67 68.18-7.72 8.54-18.7 8.54-26.42 0-10.52-12.29-48.04-48.31-67.66-70.35-6.82-7.67-15.23-18.11-8.14-28.73 2.9-4.3 7.75-6.6 14.65-6.89h32.77v-66.01c0-10.45 8.61-19.11 19.11-19.11z"></path>
  </symbol>
  <symbol xmlns="http://www.w3.org/2000/svg" viewBox="0 0 1792 1792" id="facebook">
    <path d="M1376 128q119 0 203.5 84.5T1664 416v960q0 119-84.5 203.5T1376 1664h-188v-595h199l30-232h-229V689q0-56 23.5-84t91.5-28l122-1V369q-63-9-178-9-136 0-217.5 80T948 666v171H748v232h200v595H416q-119 0-203.5-84.5T128 1376V416q0-119 84.5-203.5T416 128h960z"></path>
  </symbol>
  <symbol xmlns="http://www.w3.org/2000/svg" viewBox="0 0 16 16" id="github">
    <path d="M7.999 0C3.582 0 0 3.596 0 8.032a8.031 8.031 0 0 0 5.472 7.621c.4.074.546-.174.546-.387 0-.191-.007-.696-.011-1.366-2.225.485-2.695-1.077-2.695-1.077-.363-.928-.888-1.175-.888-1.175-.727-.498.054-.488.054-.488.803.057 1.225.828 1.225.828.714 1.227 1.873.873 2.329.667.072-.519.279-.873.508-1.074-1.776-.203-3.644-.892-3.644-3.969 0-.877.312-1.594.824-2.156-.083-.203-.357-1.02.078-2.125 0 0 .672-.216 2.2.823a7.633 7.633 0 0 1 2.003-.27 7.65 7.65 0 0 1 2.003.271c1.527-1.039 2.198-.823 2.198-.823.436 1.106.162 1.922.08 2.125.513.562.822 1.279.822 2.156 0 3.085-1.87 3.764-3.652 3.963.287.248.543.738.543 1.487 0 1.074-.01 1.94-.01 2.203 0 .215.144.465.55.386A8.032 8.032 0 0 0 16 8.032C16 3.596 12.418 0 7.999 0z"></path>
  </symbol>
  <symbol xmlns="http://www.w3.org/2000/svg" viewBox="0 0 512 512" id="harddrive">
    <path d="M464 288h-416C21.5 288 0 309.5 0 336v96C0 458.5 21.5 480 48 480h416c26.5 0 48-21.5 48-48v-96C512 309.5 490.5 288 464 288zM320 416c-17.62 0-32-14.38-32-32s14.38-32 32-32s32 14.38 32 32S337.6 416 320 416zM416 416c-17.62 0-32-14.38-32-32s14.38-32 32-32s32 14.38 32 32S433.6 416 416 416zM464 32h-416C21.5 32 0 53.5 0 80v192.4C13.41 262.3 29.92 256 48 256h416c18.08 0 34.59 6.254 48 16.41V80C512 53.5 490.5 32 464 32z"></path>
  </symbol>
  <symbol xmlns="http://www.w3.org/2000/svg" viewBox="0 0 16 16" id="instagram">
    <path d="M5.41421,1.17157c1.17157,1.17157 1.17157,3.07107 0,4.24264c-1.17157,1.17157 -3.07107,1.17157 -4.24264,0c-1.17157,-1.17157 -1.17157,-3.07107 -8.88178e-16,-4.24264c1.17157,-1.17157 3.07107,-1.17157 4.24264,-8.88178e-16" transform="translate(4.707 4.707)"></path>
    <path d="M11.5,0h-7c-2.48145,0 -4.5,2.01855 -4.5,4.5v7c0,2.48145 2.01855,4.5 4.5,4.5h7c2.48145,0 4.5,-2.01855 4.5,-4.5v-7c0,-2.48145 -2.01855,-4.5 -4.5,-4.5Zm-3.5,12c-2.20557,0 -4,-1.79395 -4,-4c0,-2.20605 1.79443,-4 4,-4c2.20557,0 4,1.79395 4,4c0,2.20605 -1.79443,4 -4,4Zm4.5,-8c-0.276123,0 -0.5,-0.223877 -0.5,-0.5c0,-0.276184 0.223877,-0.5 0.5,-0.5c0.276123,0 0.5,0.223816 0.5,0.5c0,0.276123 -0.223877,0.5 -0.5,0.5Z"></path>
  </symbol>
  <symbol xmlns="http://www.w3.org/2000/svg" viewBox="0 0 128 128" id="node">
    <path fill="#83CD29" d="M112.678 30.334l-44.143-25.605c-2.781-1.584-6.424-1.584-9.227 0l-44.488 25.605c-2.869 1.651-4.82 4.754-4.82 8.073v51.142c0 3.319 1.992 6.423 4.862 8.083l11.729 6.688c5.627 2.772 7.186 2.772 9.746 2.772 8.334 0 12.662-5.039 12.662-13.828v-50.49c.001-.713.446-1.774-.255-1.774h-5.622c-.712 0-2.122 1.061-2.122 1.773v50.49c0 3.896-3.616 7.773-10.202 4.48l-12.122-7.013c-.422-.23-.676-.693-.676-1.181v-51.142c0-.482.463-.966.891-1.213l44.378-25.561c.415-.235 1.002-.235 1.415 0l43.963 25.555c.421.253.354.722.354 1.219v51.142c0 .488.092.963-.323 1.198l-44.133 25.576c-.378.227-.87.227-1.285 0l-11.317-6.749c-.341-.198-.752-.269-1.08-.086-3.145 1.783-3.729 2.02-6.679 3.043-.727.253-1.799.692.408 1.929l14.798 8.754c1.416.82 3.027 1.246 4.647 1.246 1.642 0 3.249-.426 4.666-1.246l43.976-25.582c2.871-1.672 4.322-4.764 4.322-8.083v-51.142c-.001-3.319-1.452-6.414-4.323-8.073zM77.727 81.445c-11.727 0-14.309-3.235-15.17-9.066-.102-.628-.634-1.379-1.274-1.379h-5.73c-.709 0-1.28.86-1.28 1.566 0 7.466 4.06 16.512 23.454 16.512 14.038 0 22.088-5.455 22.088-15.109 0-9.572-6.467-12.084-20.082-13.886-13.762-1.819-15.16-2.738-15.16-5.962 0-2.658 1.184-6.203 11.374-6.203 9.104 0 12.46 1.954 13.841 8.091.119.577.646.991 1.241.991h5.754c.354 0 .691-.143.939-.396.241-.272.367-.613.336-.979-.893-10.569-7.913-15.494-22.112-15.494-12.632 0-20.166 5.334-20.166 14.275 0 9.698 7.497 12.378 19.622 13.577 14.505 1.422 15.633 3.542 15.633 6.395 0 4.956-3.978 7.067-13.308 7.067z"></path>
  </symbol>
  <symbol xmlns="http://www.w3.org/2000/svg" viewBox="-103.68015 -90.8995 898.5613 545.397" id="php">
    <defs>
      <clipPath id="a" clipPathUnits="userSpaceOnUse">
        <path d="M11.52 162C11.52 81.677 135.307 16.561 288 16.561S564.481 81.677 564.481 162c0 80.322-123.788 145.439-276.481 145.439-152.693 0-276.48-65.117-276.48-145.439"></path>
      </clipPath>
      <clipPath id="c" clipPathUnits="userSpaceOnUse">
        <path d="M0 324h576V0H0z"></path>
      </clipPath>
      <clipPath id="d" clipPathUnits="userSpaceOnUse">
        <path d="M0 324h576V0H0z"></path>
      </clipPath>
      <radialGradient spreadMethod="pad" r="1" id="b" gradientUnits="userSpaceOnUse" gradientTransform="matrix(363.05789 0 0 -363.05789 177.52 256.307)" fy="0" fx="0" cy="0" cx="0">
        <stop offset="0" stop-color="#aeb2d5"></stop>
        <stop offset=".3" stop-color="#aeb2d5"></stop>
        <stop offset=".75" stop-color="#484c89"></stop>
        <stop offset="1" stop-color="#484c89"></stop>
      </radialGradient>
    </defs>
    <g clip-path="url(#a)" transform="matrix(1.25 0 0 -1.25 -14.4 384.299)">
      <path d="M11.52 162C11.52 81.677 135.307 16.561 288 16.561S564.481 81.677 564.481 162c0 80.322-123.788 145.439-276.481 145.439-152.693 0-276.48-65.117-276.48-145.439" fill="url(#b)"></path>
    </g>
    <g clip-path="url(#c)" transform="matrix(1.25 0 0 -1.25 -14.4 384.299)">
      <path d="M288 27.36c146.729 0 265.68 60.28 265.68 134.64 0 74.36-118.951 134.641-265.68 134.641S22.32 236.36 22.32 162.001C22.32 87.64 141.271 27.358 288 27.358" fill="#777bb3"></path>
    </g>
    <g clip-path="url(#d)" transform="matrix(1.25 0 0 -1.25 -14.4 384.299)">
      <path d="M161.734 145.307c12.065 0 21.072 2.225 26.771 6.61 5.638 4.342 9.532 11.863 11.573 22.354 1.903 9.806 1.178 16.653-2.154 20.348-3.407 3.774-10.773 5.688-21.893 5.688h-19.28l-10.69-55zm-63.063-67.75a2.998 2.998 0 00-2.944 3.572l28.328 145.75a3 3 0 002.945 2.428h61.054c19.188 0 33.47-5.21 42.447-15.487 9.025-10.331 11.812-24.772 8.283-42.921-1.436-7.394-3.906-14.261-7.34-20.41-3.44-6.154-7.985-11.85-13.512-16.93-6.616-6.191-14.104-10.681-22.236-13.323-8.003-2.607-18.28-3.93-30.548-3.93h-24.722l-7.06-36.321a3 3 0 00-2.944-2.428z"></path>
      <path d="M159.224 197.307h16.808c13.42 0 18.083-2.945 19.667-4.7 2.628-2.914 3.124-9.058 1.435-17.767-1.898-9.75-5.416-16.663-10.458-20.545-5.162-3.974-13.554-5.988-24.941-5.988H149.7zm28.83 35H127a6 6 0 01-5.89-4.855L92.784 81.702a6 6 0 015.889-7.144h31.75a6 6 0 015.89 4.854l6.588 33.895h22.249c12.582 0 23.174 1.372 31.479 4.077 8.54 2.775 16.399 7.48 23.354 13.984 5.752 5.292 10.49 11.232 14.08 17.657 3.59 6.427 6.17 13.594 7.668 21.302 3.715 19.104.697 34.402-8.97 45.466-9.571 10.958-24.613 16.514-44.705 16.514m-45.633-90h19.313c12.8 0 22.336 2.411 28.6 7.234 6.267 4.824 10.493 12.875 12.689 24.157 2.1 10.832 1.144 18.476-2.871 22.93-4.02 4.452-12.06 6.68-24.121 6.68h-21.754l-11.856-61m45.633 84c18.367 0 31.766-4.82 40.188-14.462 8.42-9.64 10.957-23.098 7.597-40.375-1.383-7.117-3.722-13.624-7.015-19.519-3.297-5.899-7.602-11.293-12.922-16.184-6.34-5.933-13.383-10.16-21.133-12.679-7.75-2.525-17.621-3.782-29.621-3.782h-27.196l-7.531-38.75h-31.75L127 226.307h61.055" fill="#fff"></path>
      <path d="M311.583 116.307c-.896 0-1.745.4-2.314 1.092a2.994 2.994 0 00-.631 2.48l12.531 64.489c1.192 6.133.898 10.535-.827 12.395-1.056 1.137-4.228 3.044-13.607 3.044h-22.702l-15.755-81.072a3 3 0 00-2.945-2.428h-31.5a2.998 2.998 0 00-2.945 3.572l28.328 145.75a3 3 0 002.945 2.428h31.5a3 3 0 002.945-3.572l-6.836-35.178h24.422c18.605 0 31.221-3.28 38.569-10.028 7.49-6.884 9.827-17.891 6.947-32.72l-13.18-67.824a3 3 0 00-2.945-2.428z"></path>
      <path d="M293.661 271.057h-31.5a6 6 0 01-5.89-4.855l-28.328-145.75a5.998 5.998 0 015.89-7.145h31.5a6 6 0 015.89 4.855l15.283 78.645h20.23c9.362 0 11.327-2 11.406-2.086.568-.61 1.315-3.44.082-9.78l-12.53-64.49a5.998 5.998 0 015.89-7.144h32a6 6 0 015.89 4.855l13.178 67.825c3.093 15.921.447 27.864-7.86 35.5-7.929 7.281-21.209 10.82-40.6 10.82h-20.784l6.143 31.605a6.001 6.001 0 01-5.89 7.145m0-6l-7.53-38.75h28.061c17.657 0 29.836-3.082 36.54-9.238 6.702-6.16 8.71-16.14 6.031-29.938l-13.18-67.824h-32l12.531 64.488c1.426 7.336.902 12.34-1.574 15.008-2.477 2.668-7.746 4.004-15.805 4.004H281.56l-16.226-83.5h-31.5l28.328 145.75h31.5" fill="#fff"></path>
      <path d="M409.55 145.307c12.065 0 21.072 2.225 26.77 6.61 5.639 4.34 9.533 11.862 11.575 22.354 1.903 9.806 1.178 16.653-2.155 20.348-3.407 3.774-10.773 5.688-21.893 5.688h-19.281l-10.69-55zm-63.062-67.75a2.999 2.999 0 00-2.945 3.572l28.328 145.75a3.002 3.002 0 002.946 2.428h61.053c19.189 0 33.47-5.21 42.448-15.487 9.025-10.33 11.81-24.771 8.283-42.921-1.438-7.394-3.907-14.261-7.342-20.41-3.44-6.154-7.984-11.85-13.511-16.93-6.616-6.191-14.104-10.681-22.236-13.323-8.003-2.607-18.281-3.93-30.548-3.93H388.24l-7.057-36.321a3.001 3.001 0 00-2.946-2.428z"></path>
      <path d="M407.04 197.307h16.807c13.421 0 18.083-2.945 19.667-4.7 2.63-2.914 3.125-9.058 1.435-17.766-1.898-9.75-5.417-16.664-10.458-20.546-5.162-3.974-13.554-5.988-24.94-5.988h-12.034zm28.83 35h-61.054a6 6 0 01-5.889-4.855L340.6 81.702a6 6 0 015.889-7.144h31.75a6 6 0 015.89 4.854l6.587 33.895h22.25c12.581 0 23.173 1.372 31.478 4.077 8.541 2.775 16.401 7.481 23.356 13.986 5.752 5.291 10.488 11.23 14.078 17.655 3.591 6.427 6.171 13.594 7.668 21.302 3.715 19.105.697 34.403-8.969 45.467-9.572 10.957-24.613 16.513-44.706 16.513m-45.632-90h19.312c12.801 0 22.336 2.411 28.601 7.234 6.267 4.824 10.492 12.875 12.688 24.157 2.102 10.832 1.145 18.476-2.87 22.93-4.02 4.452-12.06 6.68-24.122 6.68h-21.754l-11.855-61m45.632 84c18.367 0 31.766-4.82 40.188-14.462 8.422-9.64 10.957-23.098 7.597-40.375-1.383-7.117-3.722-13.624-7.015-19.519-3.297-5.899-7.602-11.293-12.922-16.184-6.34-5.933-13.383-10.16-21.133-12.679-7.75-2.525-17.62-3.782-29.62-3.782h-27.197l-7.53-38.75h-31.75l28.328 145.75h61.054" fill="#fff"></path>
    </g>
  </symbol>
  <symbol xmlns="http://www.w3.org/2000/svg" viewBox="0 0 576 512" id="project">
    <path d="M0 80C0 53.49 21.49 32 48 32H144C170.5 32 192 53.49 192 80V96H384V80C384 53.49 405.5 32 432 32H528C554.5 32 576 53.49 576 80V176C576 202.5 554.5 224 528 224H432C405.5 224 384 202.5 384 176V160H192V176C192 177.7 191.9 179.4 191.7 180.1L272 288H368C394.5 288 416 309.5 416 336V432C416 458.5 394.5 480 368 480H272C245.5 480 224 458.5 224 432V336C224 334.3 224.1 332.6 224.3 331L144 224H48C21.49 224 0 202.5 0 176V80z"></path>
  </symbol>
  <symbol xmlns="http://www.w3.org/2000/svg" enable-background="new 0 0 24 24" viewBox="0 0 24 24" id="scala (2)">
    <linearGradient id="a" x1="-1271.141" x2="-1270.141" y1="-2539.938" y2="-2539.938" gradientTransform="matrix(14.7692 0 0 -5.5385 18778.385 -14051.77)" gradientUnits="userSpaceOnUse">
      <stop offset="0" stop-color="#4f4f4f"></stop>
      <stop offset="1"></stop>
    </linearGradient>
    <path fill="url(#a)" d="M18.536,13.846c-1.303,0.682-3.919,1.206-6.536,1.615v1.846c3.692-0.577,7.385-1.385,7.385-2.538C19.385,14.433,19.071,14.127,18.536,13.846L18.536,13.846z"></path>
    <linearGradient id="b" x1="-1271.141" x2="-1270.141" y1="-2539.938" y2="-2539.938" gradientTransform="matrix(14.7692 0 0 -5.5385 18778.385 -14059.154)" gradientUnits="userSpaceOnUse">
      <stop offset="0" stop-color="#4f4f4f"></stop>
      <stop offset="1"></stop>
    </linearGradient>
    <path fill="url(#b)" d="M18.536,6.462C17.233,7.143,14.616,7.668,12,8.077v1.846c3.692-0.577,7.385-1.385,7.385-2.538C19.385,7.048,19.071,6.742,18.536,6.462L18.536,6.462z"></path>
    <linearGradient id="c" x1="-1271.141" x2="-1270.141" y1="-2506.313" y2="-2506.313" gradientTransform="matrix(14.7692 0 0 -9.2308 18778.385 -23123.77)" gradientUnits="userSpaceOnUse">
      <stop offset="0" stop-color="#c40000"></stop>
      <stop offset="1" stop-color="red"></stop>
    </linearGradient>
    <path fill="url(#c)" d="M19.385,7.385L19.385,7.385c0,1.154-3.693,1.961-7.385,2.538v5.538c2.616-0.409,5.233-0.934,6.536-1.615c0.536-0.28,0.849-0.587,0.849-0.923V7.385L19.385,7.385z"></path>
    <linearGradient id="d" x1="-1271.141" x2="-1270.141" y1="-2506.313" y2="-2506.313" gradientTransform="matrix(14.7692 0 0 -9.2308 18778.385 -23131.154)" gradientUnits="userSpaceOnUse">
      <stop offset="0" stop-color="#c40000"></stop>
      <stop offset="1" stop-color="red"></stop>
    </linearGradient>
    <path fill="url(#d)" d="M19.385,0c0,1.154-3.693,1.961-7.385,2.538v5.539c2.616-0.409,5.233-0.934,6.536-1.615c0.536-0.28,0.849-0.587,0.849-0.923V0L19.385,0z"></path>
    <linearGradient id="e" x1="-1271.141" x2="-1270.141" y1="-2506.313" y2="-2506.313" gradientTransform="matrix(14.7692 0 0 -9.2308 18778.385 -23116.385)" gradientUnits="userSpaceOnUse">
      <stop offset="0" stop-color="#c40000"></stop>
      <stop offset="1" stop-color="red"></stop>
    </linearGradient>
    <path fill="url(#e)" d="M19.385,14.77L19.385,14.77c0,1.154-3.693,1.961-7.385,2.538v5.538c3.692-0.577,7.385-1.385,7.385-2.538V14.77L19.385,14.77z"></path>
    <linearGradient id="f" x1="-1271.141" x2="-1270.141" y1="-2540.042" y2="-2540.042" gradientTransform="matrix(14.7692 0 0 -5.5385 18778.385 -14051.77)" gradientUnits="userSpaceOnUse">
      <stop offset="0" stop-color="#454545"></stop>
      <stop offset="1"></stop>
    </linearGradient>
    <path fill="url(#f)" d="M4.615,14.77L4.615,14.77v1.845c0,0.199,2.723,0.482,5.831,0.924c0.511-0.073,1.032-0.149,1.553-0.231v-1.846c-3.692,0.577-7.384,0.923-7.384,1.153V14.77L4.615,14.77z"></path>
    <linearGradient id="g" x1="-1271.141" x2="-1270.141" y1="-2540.042" y2="-2540.042" gradientTransform="matrix(14.7692 0 0 -5.5385 18778.385 -14059.154)" gradientUnits="userSpaceOnUse">
      <stop offset="0" stop-color="#454545"></stop>
      <stop offset="1"></stop>
    </linearGradient>
    <path fill="url(#g)" d="M4.615,7.385L4.615,7.385v1.846c0,0.198,2.723,0.482,5.831,0.923c0.511-0.073,1.032-0.15,1.554-0.231V8.077C8.307,8.654,4.615,9,4.615,9.231V7.385L4.615,7.385z"></path>
    <linearGradient id="h" x1="-1271.141" x2="-1270.141" y1="-2506.512" y2="-2506.512" gradientTransform="matrix(14.7692 0 0 -9.2308 18778.385 -23123.77)" gradientUnits="userSpaceOnUse">
      <stop offset="0" stop-color="#ab0000"></stop>
      <stop offset="1" stop-color="#de0000"></stop>
    </linearGradient>
    <path fill="url(#h)" d="M12,9.923c-0.521,0.081-1.043,0.158-1.554,0.231c-3.108,0.441-5.831,0.725-5.831,0.923v3.693v1.845c0-0.23,3.692-0.576,7.384-1.153V9.923L12,9.923z"></path>
    <linearGradient id="i" x1="-1271.141" x2="-1270.141" y1="-2506.512" y2="-2506.512" gradientTransform="matrix(14.7692 0 0 -9.2308 18778.385 -23131.154)" gradientUnits="userSpaceOnUse">
      <stop offset="0" stop-color="#ab0000"></stop>
      <stop offset="1" stop-color="#de0000"></stop>
    </linearGradient>
    <path fill="url(#i)" d="M12,2.538C8.307,3.115,4.615,3.461,4.615,3.692v3.693v1.846C4.615,9,8.307,8.654,12,8.077V2.538L12,2.538z"></path>
    <path fill="#DEDEDE" d="M12,22.846C8.307,23.423,4.615,23.769,4.615,24H12V22.846L12,22.846z"></path>
    <linearGradient id="j" x1="-1271.141" x2="-1270.141" y1="-2506.512" y2="-2506.512" gradientTransform="matrix(14.7692 0 0 -9.2308 18778.385 -23116.385)" gradientUnits="userSpaceOnUse">
      <stop offset="0" stop-color="#ab0000"></stop>
      <stop offset="1" stop-color="#de0000"></stop>
    </linearGradient>
    <path fill="url(#j)" d="M12,17.308c-0.521,0.081-1.042,0.158-1.553,0.231c-3.108,0.441-5.831,0.725-5.831,0.923V24c0-0.231,3.692-0.577,7.384-1.154V17.308L12,17.308z"></path>
  </symbol>
  <symbol xmlns="http://www.w3.org/2000/svg" enable-background="new 0 0 24 24" viewBox="0 0 24 24" id="scala (3)">
    <linearGradient id="a" x1="37.978" x2="37.987" y1="-446.291" y2="-446.291" gradientTransform="matrix(1538 0 0 576.75 -58406 257413.766)" gradientUnits="userSpaceOnUse">
      <stop offset="0" stop-color="#4f4f4f"></stop>
      <stop offset="1"></stop>
    </linearGradient>
    <path fill="url(#a)" d="M4.615,14.596v1.731c0,0.292,6.198,0.78,10.237,1.731c1.951-0.459,3.398-1.026,3.398-1.731v-1.731c0-0.704-1.447-1.272-3.398-1.731C10.814,13.816,4.615,14.305,4.615,14.596L4.615,14.596z"></path>
    <linearGradient id="b" x1="37.978" x2="37.987" y1="-444.97" y2="-444.97" gradientTransform="matrix(1538 0 0 576.75 -58406 256644.766)" gradientUnits="userSpaceOnUse">
      <stop offset="0" stop-color="#4f4f4f"></stop>
      <stop offset="1"></stop>
    </linearGradient>
    <path fill="url(#b)" d="M4.615,7.673v1.731c0,0.292,6.198,0.78,10.237,1.731c1.951-0.459,3.398-1.026,3.398-1.731V7.673c0-0.704-1.447-1.272-3.398-1.731C10.814,6.893,4.615,7.382,4.615,7.673L4.615,7.673z"></path>
    <linearGradient id="c" x1="37.978" x2="37.987" y1="-445.178" y2="-445.178" gradientTransform="matrix(1538 0 0 961.25 -58406 427939.531)" gradientUnits="userSpaceOnUse">
      <stop offset="0" stop-color="#c40000"></stop>
      <stop offset="1" stop-color="red"></stop>
    </linearGradient>
    <path fill="url(#c)" d="M4.615,11.135v5.192c0-0.433,13.635-1.298,13.635-3.462V7.673C18.25,9.837,4.615,10.702,4.615,11.135L4.615,11.135z"></path>
    <linearGradient id="d" x1="37.978" x2="37.987" y1="-444.385" y2="-444.385" gradientTransform="matrix(1538 0 0 961.25 -58406 427170.531)" gradientUnits="userSpaceOnUse">
      <stop offset="0" stop-color="#c40000"></stop>
      <stop offset="1" stop-color="red"></stop>
    </linearGradient>
    <path fill="url(#d)" d="M4.615,4.212v5.192c0-0.433,13.635-1.298,13.635-3.462V0.75C18.25,2.913,4.615,3.779,4.615,4.212L4.615,4.212z"></path>
    <linearGradient id="e" x1="37.978" x2="37.987" y1="-445.971" y2="-445.971" gradientTransform="matrix(1538 0 0 961.25 -58406 428708.531)" gradientUnits="userSpaceOnUse">
      <stop offset="0" stop-color="#c40000"></stop>
      <stop offset="1" stop-color="red"></stop>
    </linearGradient>
    <path fill="url(#e)" d="M4.615,18.058v5.192c0-0.433,13.635-1.298,13.635-3.462v-5.192C18.25,16.76,4.615,17.625,4.615,18.058L4.615,18.058z"></path>
    <path d="M4.75 24C4.336 24 4 23.664 4 23.25v-5.203c0-.414.336-.75.75-.75 4.617 0 12.178-1.531 12.878-2.4.2-.246.552-.368.853-.262C18.781 14.74 19 14.998 19 15.316v5.121c0 .147-.043.291-.125.414C17.622 22.745 8.223 24 4.75 24zM5.5 18.781v3.706c4.463-.144 10.873-1.482 12-2.344v-3.48C14.695 17.872 8.67 18.664 5.5 18.781zM4.75 9.434C4.336 9.434 4 9.098 4 8.684V3.48c0-.414.336-.75.75-.75 4.617 0 12.178-1.531 12.878-2.4.2-.246.552-.367.853-.262C18.781.174 19 .432 19 .75v5.121c0 .147-.043.291-.125.414C17.621 8.179 8.223 9.434 4.75 9.434zM5.5 4.215v3.706c4.462-.144 10.873-1.482 12-2.344v-3.48C14.695 3.306 8.67 4.098 5.5 4.215z"></path>
    <path d="M4.75,16.592c-0.414,0-0.75-0.336-0.75-0.75v-4.953c0-0.414,0.336-0.75,0.75-0.75c4.617,0,12.178-1.53,12.879-2.399c0.199-0.248,0.552-0.368,0.852-0.262C18.781,7.583,19,7.841,19,8.159v4.87c0,0.147-0.043,0.291-0.125,0.414C17.622,15.337,8.223,16.592,4.75,16.592z M5.5,11.623v3.456c4.463-0.144,10.873-1.482,12-2.344V9.506C14.695,10.714,8.67,11.506,5.5,11.623z"></path>
  </symbol>
  <symbol xmlns="http://www.w3.org/2000/svg" viewBox="0 0 24 24" id="secure-data">
    <g>
      <path d="M19,9c0-2-.09-4-2.05-5.94a7,7,0,0,0-11.86,4A6,6,0,0,0,0,13c0,4.75,5.54,7.26,6,5.1a1,1,0,0,0-.78-1.18C.54,16,1.16,9,6,9A1,1,0,0,0,7,8,5,5,0,1,1,17,8v2a1,1,0,0,0,1,1h1a3,3,0,1,1,0,6,1,1,0,0,0-1,1c0,2.26,6,.63,6-4A5,5,0,0,0,19,9Z"></path>
      <path d="M16,15V14a4,4,0,0,0-8,0v1a1,1,0,0,0-1,1v6a1,1,0,0,0,1,1h8a1,1,0,0,0,1-1V16A1,1,0,0,0,16,15Zm-6-1a2,2,0,0,1,4,0v1H10Zm5,7H9V17h6Z"></path>
      <path d="M12,20a1,1,0,0,0,0-2A1,1,0,0,0,12,20Z"></path>
    </g>
  </symbol>
  <symbol version="1.1" xmlns="http://www.w3.org/2000/svg" xmlns:xlink="http://www.w3.org/1999/xlink" preserveAspectRatio="xMidYMid" viewBox="0 0 256 416" id="scala">
    <defs>
      <linearGradient x1="0%" y1="50%" x2="100%" y2="50%" id="linearGradient-1">
        <stop stop-color="#4F4F4F" offset="0%"></stop>
        <stop stop-color="#000000" offset="100%"></stop>
      </linearGradient>
      <linearGradient x1="0%" y1="50%" x2="100%" y2="50%" id="linearGradient-2">
        <stop stop-color="#C40000" offset="0%"></stop>
        <stop stop-color="#FF0000" offset="100%"></stop>
      </linearGradient>
    </defs>
    <g>
      <path d="M0,288 L0,256 C0,250.606222 116.376889,241.571556 192.199111,224 L192.199111,224 C228.828444,232.490667 256,242.968889 256,256 L256,256 L256,288 C256,301.024 228.828444,311.509333 192.199111,320 L192.199111,320 C116.376889,302.424889 0,293.390222 0,288" fill="url(#linearGradient-1)" transform="translate(128.000000, 272.000000) scale(1, -1) translate(-128.000000, -272.000000) "></path>
      <path d="M0,160 L0,128 C0,122.606222 116.376889,113.571556 192.199111,96 L192.199111,96 C228.828444,104.490667 256,114.968889 256,128 L256,128 L256,160 C256,173.024 228.828444,183.509333 192.199111,192 L192.199111,192 C116.376889,174.424889 0,165.390222 0,160" fill="url(#linearGradient-1)" transform="translate(128.000000, 144.000000) scale(1, -1) translate(-128.000000, -144.000000) "></path>
      <path d="M0,224 L0,128 C0,136 256,152 256,192 L256,192 L256,288 C256,248 0,232 0,224" fill="url(#linearGradient-2)" transform="translate(128.000000, 208.000000) scale(1, -1) translate(-128.000000, -208.000000) "></path>
      <path d="M0,96 L0,0 C0,8 256,24 256,64 L256,64 L256,160 C256,120 0,104 0,96" fill="url(#linearGradient-2)" transform="translate(128.000000, 80.000000) scale(1, -1) translate(-128.000000, -80.000000) "></path>
      <path d="M0,352 L0,256 C0,264 256,280 256,320 L256,320 L256,416 C256,376 0,360 0,352" fill="url(#linearGradient-2)" transform="translate(128.000000, 336.000000) scale(1, -1) translate(-128.000000, -336.000000) "></path>
    </g>
  </symbol>
  <symbol xmlns="http://www.w3.org/2000/svg" viewBox="0 0 24 24" id="twitter">
    <path d="M22,5.8a8.49,8.49,0,0,1-2.36.64,4.13,4.13,0,0,0,1.81-2.27,8.21,8.21,0,0,1-2.61,1,4.1,4.1,0,0,0-7,3.74A11.64,11.64,0,0,1,3.39,4.62a4.16,4.16,0,0,0-.55,2.07A4.09,4.09,0,0,0,4.66,10.1,4.05,4.05,0,0,1,2.8,9.59v.05a4.1,4.1,0,0,0,3.3,4A3.93,3.93,0,0,1,5,13.81a4.9,4.9,0,0,1-.77-.07,4.11,4.11,0,0,0,3.83,2.84A8.22,8.22,0,0,1,3,18.34a7.93,7.93,0,0,1-1-.06,11.57,11.57,0,0,0,6.29,1.85A11.59,11.59,0,0,0,20,8.45c0-.17,0-.35,0-.53A8.43,8.43,0,0,0,22,5.8Z"></path>
  </symbol>
  <symbol xmlns="http://www.w3.org/2000/svg" viewBox="0 0 128 128" id="ruby">
    <path fill="#D91404" fill-rule="evenodd" d="M35.971 111.33c27.466 3.75 54.444 7.433 81.958 11.188-9.374-15.606-18.507-30.813-27.713-46.144l-54.245 34.956zM125.681 24.947c-2.421 3.636-4.847 7.269-7.265 10.907-8.304 12.493-16.607 24.986-24.903 37.485-.462.696-1.061 1.248-.41 2.321 8.016 13.237 15.969 26.513 23.942 39.777 1.258 2.095 2.53 4.182 4.157 6.192 1.612-32.193 3.223-64.387 4.834-96.58l-.355-.102zM16.252 66.22c.375.355 1.311.562 1.747.347 7.689-3.779 15.427-7.474 22.948-11.564 2.453-1.333 4.339-3.723 6.452-5.661 6.997-6.417 13.983-12.847 20.966-19.278.427-.395.933-.777 1.188-1.275 2.508-4.902 4.973-9.829 7.525-14.898-3.043-1.144-5.928-2.263-8.849-3.281-.396-.138-1.02.136-1.449.375-6.761 3.777-13.649 7.353-20.195 11.472-3.275 2.061-5.943 5.098-8.843 7.743-4.674 4.266-9.342 8.542-13.948 12.882-1.222 1.152-2.336 2.468-3.288 3.854-3.15 4.587-6.206 9.24-9.402 14.025 1.786 1.847 3.41 3.613 5.148 5.259zM44.354 59.949c-3.825 16.159-7.627 32.227-11.556 48.823 18.423-11.871 36.421-23.468 54.3-34.987-14.228-4.605-28.41-9.196-42.744-13.836zM120.985 25.103c-15.566 2.601-30.76 5.139-46.15 7.71 5.242 12.751 10.379 25.246 15.662 38.096 10.221-15.359 20.24-30.41 30.488-45.806zM44.996 56.644c14.017 4.55 27.755 9.01 41.892 13.6-5.25-12.79-10.32-25.133-15.495-37.737-8.815 8.059-17.498 15.999-26.397 24.137zM16.831 75.643c-4.971 11.883-9.773 23.362-14.662 35.048 9.396-.278 18.504-.547 27.925-.825-4.423-11.412-8.759-22.6-13.263-34.223zM30.424 101.739l.346-.076c3.353-13.941 6.754-27.786 10.177-42.272-7.636 3.969-14.92 7.754-22.403 11.644 3.819 9.926 7.891 20.397 11.88 30.704zM115.351 22.842c-4.459-1.181-8.918-2.366-13.379-3.539-6.412-1.686-12.829-3.351-19.237-5.052-.801-.213-1.38-.352-1.851.613-2.265 4.64-4.6 9.245-6.901 13.868-.071.143-.056.328-.111.687 13.886-2.104 27.679-4.195 41.47-6.285l.009-.292zM89.482 12.288l36.343 10.054c-2.084-5.939-4.017-11.446-6.005-17.11l-30.285 6.715-.053.341zM33.505 114.007c-4.501-.519-9.122-.042-13.687.037-3.75.063-7.5.206-11.25.323-.386.012-.771.09-1.156.506 31.003 2.866 62.005 5.732 93.007 8.6l.063-.414c-9.938-1.357-19.877-2.714-29.815-4.07-12.384-1.691-24.747-3.551-37.162-4.982zM2.782 99.994c3.995-9.27 7.973-18.546 11.984-27.809.401-.929.37-1.56-.415-2.308-1.678-1.597-3.237-3.318-5.071-5.226-2.479 12.24-4.897 24.177-7.317 36.113l.271.127c.185-.297.411-.578.548-.897zM81.522 9.841c6.737-1.738 13.572-3.097 20.367-4.613.44-.099.87-.244 1.303-.368l-.067-.332c-9.571 1.287-19.141 2.575-29.194 3.928 2.741 1.197 4.853 2.091 7.591 1.385z" clip-rule="evenodd"></path>
  </symbol>
  <symbol xmlns="http://www.w3.org/2000/svg" viewBox="0 0 512 512" id="upload">
    <path d="M105.4 182.6c12.5 12.49 32.76 12.5 45.25 .001L224 109.3V352c0 17.67 14.33 32 32 32c17.67 0 32-14.33 32-32V109.3l73.38 73.38c12.49 12.49 32.75 12.49 45.25-.001c12.49-12.49 12.49-32.75 0-45.25l-128-128C272.4 3.125 264.2 0 256 0S239.6 3.125 233.4 9.375L105.4 137.4C92.88 149.9 92.88 170.1 105.4 182.6zM480 352h-160c0 35.35-28.65 64-64 64s-64-28.65-64-64H32c-17.67 0-32 14.33-32 32v96c0 17.67 14.33 32 32 32h448c17.67 0 32-14.33 32-32v-96C512 366.3 497.7 352 480 352zM432 456c-13.2 0-24-10.8-24-24c0-13.2 10.8-24 24-24s24 10.8 24 24C456 445.2 445.2 456 432 456z"></path>
  </symbol>
  <symbol xmlns="http://www.w3.org/2000/svg" viewBox="0 0 32 32" id="wireless">
    <path d="M7.053 2a.5.5 0 0 0-.381.178L4.148 5.145A.5.5 0 0 0 4 5.5v6a.5.5 0 0 0 .5.5h1.473l-1.825 2.145A.5.5 0 0 0 4 14.5v6a.5.5 0 0 0 .5.5h1.473l-1.825 2.145A.5.5 0 0 0 4 23.5v6a.5.5 0 0 0 .5.5h22a.5.5 0 0 0 .5-.5v-6a.5.5 0 0 0 0-.008.5.5 0 0 0 0-.008.5.5 0 0 0-.004-.047.5.5 0 0 0 0-.001.5.5 0 0 0-.01-.051.5.5 0 0 0-.013-.047.5.5 0 0 0-.016-.041.5.5 0 0 0-.002-.006.5.5 0 0 0-.02-.037.5.5 0 0 0-.003-.008.5.5 0 0 0-.02-.03.5.5 0 0 0-.008-.01.5.5 0 0 0-.023-.03v-.002L25.02 21H26.5a.5.5 0 0 0 .5-.5v-6a.5.5 0 0 0 0-.008.5.5 0 0 0 0-.008.5.5 0 0 0-.004-.046.5.5 0 0 0 0-.002.5.5 0 0 0-.01-.051.5.5 0 0 0-.013-.047.5.5 0 0 0-.016-.041.5.5 0 0 0-.002-.006.5.5 0 0 0-.02-.037.5.5 0 0 0-.003-.008.5.5 0 0 0-.02-.03.5.5 0 0 0-.008-.01.5.5 0 0 0-.023-.03v-.002L25.02 12H26.5a.5.5 0 0 0 .5-.5v-6a.5.5 0 0 0 0-.008.5.5 0 0 0 0-.008.5.5 0 0 0-.004-.046.5.5 0 0 0 0-.002.5.5 0 0 0-.01-.051.5.5 0 0 0-.013-.047.5.5 0 0 0-.016-.041.5.5 0 0 0-.002-.006.5.5 0 0 0-.02-.037.5.5 0 0 0-.003-.008.5.5 0 0 0-.02-.03.5.5 0 0 0-.008-.01.5.5 0 0 0-.023-.03v-.002l-2.563-2.998a.5.5 0 0 0-.38-.176H7.052zm.23 1h16.424l1.707 2H5.582l1.701-2zM5 6h21v5H5V6zm1.5 1a.5.5 0 0 0-.5.5v2a.5.5 0 0 0 .5.5h2a.5.5 0 0 0 .5-.5v-2a.5.5 0 0 0-.5-.5h-2zm4 0a.5.5 0 0 0-.5.5v2a.5.5 0 0 0 .5.5h2a.5.5 0 0 0 .5-.5v-2a.5.5 0 0 0-.5-.5h-2zm4 0a.5.5 0 0 0-.5.5v2a.5.5 0 0 0 .5.5h2a.5.5 0 0 0 .5-.5v-2a.5.5 0 0 0-.5-.5h-2zM18 7v1h3V7h-3zm4 0v1h3V7h-3zM7 8h1v1H7V8zm4 0h1v1h-1V8zm4 0h1v1h-1V8zm3 1v1h3V9h-3zm4 0v1h3V9h-3zM7.283 12h16.424l1.707 2H5.582l1.701-2zM5 15h21v5H5v-5zm1.5 1a.5.5 0 0 0-.5.5v2a.5.5 0 0 0 .5.5h2a.5.5 0 0 0 .5-.5v-2a.5.5 0 0 0-.5-.5h-2zm4 0a.5.5 0 0 0-.5.5v2a.5.5 0 0 0 .5.5h2a.5.5 0 0 0 .5-.5v-2a.5.5 0 0 0-.5-.5h-2zm4 0a.5.5 0 0 0-.5.5v2a.5.5 0 0 0 .5.5h2a.5.5 0 0 0 .5-.5v-2a.5.5 0 0 0-.5-.5h-2zm3.5 0v1h3v-1h-3zm4 0v1h3v-1h-3zM7 17h1v1H7v-1zm4 0h1v1h-1v-1zm4 0h1v1h-1v-1zm3 1v1h3v-1h-3zm4 0v1h3v-1h-3zM7.283 21h16.424l1.707 2H5.582l1.701-2zM5 24h21v5H5v-5zm1.5 1a.5.5 0 0 0-.5.5v2a.5.5 0 0 0 .5.5h2a.5.5 0 0 0 .5-.5v-2a.5.5 0 0 0-.5-.5h-2zm4 0a.5.5 0 0 0-.5.5v2a.5.5 0 0 0 .5.5h2a.5.5 0 0 0 .5-.5v-2a.5.5 0 0 0-.5-.5h-2zm4 0a.5.5 0 0 0-.5.5v2a.5.5 0 0 0 .5.5h2a.5.5 0 0 0 .5-.5v-2a.5.5 0 0 0-.5-.5h-2zm3.5 0v1h3v-1h-3zm4 0v1h3v-1h-3zM7 26h1v1H7v-1zm4 0h1v1h-1v-1zm4 0h1v1h-1v-1zm3 1v1h3v-1h-3zm4 0v1h3v-1h-3z" color="#000" font-family="sans-serif" font-weight="400" overflow="visible"></path>
  </symbol>

  <symbol xmlns="http://www.w3.org/2000/svg" fill="none" stroke="currentColor" stroke-width="2" viewBox="0 0 24 24" id="doc">
    <path stroke-linecap="round" stroke-linejoin="round" d="M9 12h6m-6 4h6m2 5H7a2 2 0 01-2-2V5a2 2 0 012-2h5.586a1 1 0 01.707.293l5.414 5.414a1 1 0 01.293.707V19a2 2 0 01-2 2z"></path>
  </symbol>
</svg>