<svg xmlns="http://www.w3.org/2000/svg" width="32" height="32"><path d="M7.053 2a.5.5 0 0 0-.381.178L4.148 5.145A.5.5 0 0 0 4 5.5v6a.5.5 0 0 0 .5.5h1.473l-1.825 2.145A.5.5 0 0 0 4 14.5v6a.5.5 0 0 0 .5.5h1.473l-1.825 2.145A.5.5 0 0 0 4 23.5v6a.5.5 0 0 0 .5.5h22a.5.5 0 0 0 .5-.5v-6a.5.5 0 0 0 0-.008.5.5 0 0 0 0-.008.5.5 0 0 0-.004-.047.5.5 0 0 0 0-.001.5.5 0 0 0-.01-.051.5.5 0 0 0-.013-.047.5.5 0 0 0-.016-.041.5.5 0 0 0-.002-.006.5.5 0 0 0-.02-.037.5.5 0 0 0-.003-.008.5.5 0 0 0-.02-.03.5.5 0 0 0-.008-.01.5.5 0 0 0-.023-.03v-.002L25.02 21H26.5a.5.5 0 0 0 .5-.5v-6a.5.5 0 0 0 0-.008.5.5 0 0 0 0-.008.5.5 0 0 0-.004-.046.5.5 0 0 0 0-.002.5.5 0 0 0-.01-.051.5.5 0 0 0-.013-.047.5.5 0 0 0-.016-.041.5.5 0 0 0-.002-.006.5.5 0 0 0-.02-.037.5.5 0 0 0-.003-.008.5.5 0 0 0-.02-.03.5.5 0 0 0-.008-.01.5.5 0 0 0-.023-.03v-.002L25.02 12H26.5a.5.5 0 0 0 .5-.5v-6a.5.5 0 0 0 0-.008.5.5 0 0 0 0-.008.5.5 0 0 0-.004-.046.5.5 0 0 0 0-.002.5.5 0 0 0-.01-.051.5.5 0 0 0-.013-.047.5.5 0 0 0-.016-.041.5.5 0 0 0-.002-.006.5.5 0 0 0-.02-.037.5.5 0 0 0-.003-.008.5.5 0 0 0-.02-.03.5.5 0 0 0-.008-.01.5.5 0 0 0-.023-.03v-.002l-2.563-2.998a.5.5 0 0 0-.38-.176H7.052zm.23 1h16.424l1.707 2H5.582l1.701-2zM5 6h21v5H5V6zm1.5 1a.5.5 0 0 0-.5.5v2a.5.5 0 0 0 .5.5h2a.5.5 0 0 0 .5-.5v-2a.5.5 0 0 0-.5-.5h-2zm4 0a.5.5 0 0 0-.5.5v2a.5.5 0 0 0 .5.5h2a.5.5 0 0 0 .5-.5v-2a.5.5 0 0 0-.5-.5h-2zm4 0a.5.5 0 0 0-.5.5v2a.5.5 0 0 0 .5.5h2a.5.5 0 0 0 .5-.5v-2a.5.5 0 0 0-.5-.5h-2zM18 7v1h3V7h-3zm4 0v1h3V7h-3zM7 8h1v1H7V8zm4 0h1v1h-1V8zm4 0h1v1h-1V8zm3 1v1h3V9h-3zm4 0v1h3V9h-3zM7.283 12h16.424l1.707 2H5.582l1.701-2zM5 15h21v5H5v-5zm1.5 1a.5.5 0 0 0-.5.5v2a.5.5 0 0 0 .5.5h2a.5.5 0 0 0 .5-.5v-2a.5.5 0 0 0-.5-.5h-2zm4 0a.5.5 0 0 0-.5.5v2a.5.5 0 0 0 .5.5h2a.5.5 0 0 0 .5-.5v-2a.5.5 0 0 0-.5-.5h-2zm4 0a.5.5 0 0 0-.5.5v2a.5.5 0 0 0 .5.5h2a.5.5 0 0 0 .5-.5v-2a.5.5 0 0 0-.5-.5h-2zm3.5 0v1h3v-1h-3zm4 0v1h3v-1h-3zM7 17h1v1H7v-1zm4 0h1v1h-1v-1zm4 0h1v1h-1v-1zm3 1v1h3v-1h-3zm4 0v1h3v-1h-3zM7.283 21h16.424l1.707 2H5.582l1.701-2zM5 24h21v5H5v-5zm1.5 1a.5.5 0 0 0-.5.5v2a.5.5 0 0 0 .5.5h2a.5.5 0 0 0 .5-.5v-2a.5.5 0 0 0-.5-.5h-2zm4 0a.5.5 0 0 0-.5.5v2a.5.5 0 0 0 .5.5h2a.5.5 0 0 0 .5-.5v-2a.5.5 0 0 0-.5-.5h-2zm4 0a.5.5 0 0 0-.5.5v2a.5.5 0 0 0 .5.5h2a.5.5 0 0 0 .5-.5v-2a.5.5 0 0 0-.5-.5h-2zm3.5 0v1h3v-1h-3zm4 0v1h3v-1h-3zM7 26h1v1H7v-1zm4 0h1v1h-1v-1zm4 0h1v1h-1v-1zm3 1v1h3v-1h-3zm4 0v1h3v-1h-3z" color="#000" font-family="sans-serif" font-weight="400" overflow="visible" style="line-height:normal;text-indent:0;text-align:start;text-decoration-line:none;text-decoration-style:solid;text-decoration-color:#000;text-transform:none;block-progression:tb;white-space:normal;isolation:auto;mix-blend-mode:normal;solid-color:#000;solid-opacity:1"/></svg>